<svg width="68" height="73" fill="none" xmlns="http://www.w3.org/2000/svg"><path d="M33.725.638c-5.838 0-9.332.887-11.553 1.992-1.112.553-1.901 1.135-2.432 1.73-.534.596-.87 1.47-.87 1.47a2.761 2.761 0 00-.173.693l-1.479 18.953c-.02.116.02.304 0 .432l-.172 1.905a2.764 2.764 0 000 .518c0 9.138 7.506 16.615 16.679 16.615 9.173 0 16.679-7.477 16.679-16.615v-.518l-1.651-21.29a2.761 2.761 0 00-.173-.692s-.336-.875-.87-1.47c-.53-.599-1.32-1.18-2.432-1.731C43.057 1.522 39.563.638 33.725.638zm0 44.308C15.378 44.946.367 53.547.367 61.301v11.337h66.716V61.301c0-7.366-13.571-15.48-30.664-16.269a39.879 39.879 0 00-2.694-.086zm0-38.77c5.282 0 7.92.832 9.034 1.385.373.186.417.258.523.347L44.41 22.1c-2.558.155-6.044.692-10.686.692s-8.126-.537-10.686-.692l1.129-14.192c.103-.089.15-.161.523-.347 1.114-.553 3.752-1.384 9.034-1.384zm-2.26 2.77v3.29h-3.3v4.5h3.303v3.287h4.514v-3.29h3.303v-4.497h-3.303v-3.29h-4.517zm-6.08 42.23L32.51 67.1H5.927v-5.799c0-2.063 7.088-8.105 19.459-10.124zm16.68 0c12.37 2.022 19.458 8.062 19.458 10.125V67.1H34.94l7.124-15.923z" fill="#EC5863"/></svg>