<svg width="88" height="73" fill="none" xmlns="http://www.w3.org/2000/svg"><path d="M24.581.968c-6.376 0-12.492 2.502-17 6.955A23.602 23.602 0 00.539 24.716c0 2.159.393 4.318.961 6.477h17.836l5.552-14.552c1.31-3.454 6.47-3.8 8.13 0l9.05 23.187 2.578-6.131c.569-1.425 2.099-2.504 3.978-2.504h38.381c.569-2.16.962-4.318.962-6.477a23.602 23.602 0 00-7.042-16.793C76.416 3.47 70.301.968 63.925.968c-8.131 0-15.3 4.015-19.672 10.104C39.882 4.982 32.713.968 24.58.968zM4.911 37.669a4.4 4.4 0 00-3.092 1.265 4.291 4.291 0 00-1.28 3.053c0 1.145.46 2.244 1.28 3.053a4.399 4.399 0 003.091 1.265h10.666l24.306 23.748c4.37 3.886 4.37 3.886 8.742 0L72.93 46.305h10.666c1.16 0 2.271-.455 3.09-1.265a4.291 4.291 0 001.281-3.053 4.29 4.29 0 00-1.28-3.053 4.399 4.399 0 00-3.091-1.265H50.373L46.307 47.6c-1.748 4.361-6.775 3.757-8.393.13l-8.961-23.014-4.197 10.06c-.655 1.641-2.142 2.893-4.109 2.893H4.91z" fill="#EC5863"/></svg>