<svg width="41" height="40" fill="none" xmlns="http://www.w3.org/2000/svg"><path d="M14.22 4.989c1.425-.5 2.991.174 3.497 1.504.388 1.018.041 2.125-.78 2.812l.443 1.211.707.816a.738.738 0 00.651.245 8.649 8.649 0 011.961-.017.735.735 0 00.592-.2l.51-.494.375-1.094a1.717 1.717 0 01-.238-1.573 1.739 1.739 0 012.307-1.036 1.732 1.732 0 011.008 2.059 1.73 1.73 0 01-.995 1.125l-.416 1.212.094.669c.033.23.17.43.369.55.67.407 1.285.904 1.825 1.478a.769.769 0 00.713.224l1.34-.269 1.513-.84a2.142 2.142 0 011.106-1.851 2.163 2.163 0 012.964.882c.509.97.19 2.19-.733 2.787-.72.466-1.6.449-2.278.051l-1.522.844-.85.903a.953.953 0 00-.223.906l.001.005c.15.553.24 1.108.277 1.659a.955.955 0 00.498.78l1.11.598 2.2.415a1.74 1.74 0 011.467-.399 1.728 1.728 0 011.358 2.129 1.744 1.744 0 01-1.899 1.28 1.733 1.733 0 01-1.314-.9l-2.214-.417-1.365.166a.723.723 0 00-.574.419 8.695 8.695 0 01-1.669 2.47.715.715 0 00-.175.676l.34 1.31.837 1.31c.922-.138 1.88.26 2.413 1.092a2.407 2.407 0 01-.723 3.319 2.449 2.449 0 01-3.355-.697 2.402 2.402 0 01-.102-2.482l-.89-1.39-1.093-.898a.597.597 0 00-.58-.098 8.656 8.656 0 01-4.359.38.594.594 0 00-.487.136l-.587.508-.436 1.072c.295.456.37 1.042.15 1.583a1.74 1.74 0 01-2.361.908 1.731 1.731 0 01-.891-2.111 1.726 1.726 0 011.056-1.069l.483-1.188-.09-1.043a8.664 8.664 0 01-2.282-2.069l-1.49.147-1.396.688c.009.934-.473 1.822-1.319 2.252-1.195.607-2.663.07-3.278-1.2-.615-1.27-.146-2.792 1.05-3.399.893-.454 1.94-.268 2.668.387l1.316-.649.913-.977a.252.252 0 00.06-.238 8.51 8.51 0 01.044-4.607.249.249 0 00-.048-.23l-.788-.938-1.698-.889a1.74 1.74 0 01-1.51-.05 1.722 1.722 0 01-.673-2.428 1.75 1.75 0 012.24-.653c.516.25.849.717.947 1.234l1.698.888 1.208.113a.252.252 0 00.22-.092 8.601 8.601 0 011.941-1.76.734.734 0 00.333-.6l.013-1.094-.474-1.29c-1.027-.074-1.956-.694-2.324-1.661-.506-1.33.239-2.813 1.664-3.312z" fill="#EC5863"/><path d="M25.99 18.477c-.917-3.403-4.434-5.423-7.856-4.511-3.421.912-5.452 4.41-4.535 7.813.917 3.402 4.434 5.422 7.855 4.51 3.422-.912 5.453-4.41 4.536-7.813z" fill="#F58A97"/><path d="M20.948 24.41c-3.1.827-6.28-.753-7.53-3.59.035.32.095.64.18.959.918 3.402 4.435 5.422 7.856 4.51 3.422-.912 5.453-4.41 4.536-7.813a6.411 6.411 0 00-.325-.92 6.382 6.382 0 01-4.717 6.855z" fill="#F07281"/><path d="M11.324 33.496a1.828 1.828 0 00-2.237-1.285 1.815 1.815 0 00-1.292 2.225 1.828 1.828 0 002.238 1.285 1.815 1.815 0 001.291-2.225zm22.786-5.558a1.207 1.207 0 00-2.33.621 1.207 1.207 0 002.33-.621zM30.843 6.002a1.778 1.778 0 00-2.177-1.25 1.766 1.766 0 00-1.256 2.165 1.778 1.778 0 002.176 1.25 1.766 1.766 0 001.257-2.165zM20.195 22.048a1.658 1.658 0 00-2.029-1.165 1.647 1.647 0 00-1.171 2.018 1.658 1.658 0 002.029 1.165 1.647 1.647 0 001.171-2.018zm4.115-2.466a1.128 1.128 0 00-2.178.58 1.128 1.128 0 002.179-.58zm-4.352-2.486a.947.947 0 00-1.83.488.947.947 0 001.83-.488z" fill="#EB5569"/></svg>