<svg width="140" height="40" fill="none" xmlns="http://www.w3.org/2000/svg"><path d="M51.462 26.142c-1.14 0-2.124-.186-2.952-.558-.816-.384-1.452-.936-1.908-1.657-.444-.732-.69-1.62-.738-2.663a73.832 73.832 0 010-3.312c.048-1.02.3-1.885.756-2.593.456-.707 1.098-1.248 1.926-1.62.828-.372 1.8-.558 2.916-.558.9 0 1.698.115 2.394.343.696.216 1.278.51 1.746.882.48.371.84.78 1.08 1.223.252.444.384.883.396 1.315a.294.294 0 01-.108.27.366.366 0 01-.27.108h-2.628a.699.699 0 01-.306-.055.684.684 0 01-.162-.197 2.413 2.413 0 00-.378-.558 1.873 1.873 0 00-.666-.523c-.276-.144-.642-.216-1.098-.216-.684 0-1.224.18-1.62.54-.384.36-.594.937-.63 1.729a45.426 45.426 0 000 3.131c.036.84.258 1.447.666 1.819.408.371.948.557 1.62.557.456 0 .858-.078 1.206-.233.36-.156.642-.396.846-.72.204-.337.306-.762.306-1.279v-.341h-1.692a.502.502 0 01-.342-.127.502.502 0 01-.126-.341v-1.332c0-.132.042-.24.126-.324a.467.467 0 01.342-.145H56.7a.41.41 0 01.324.145.439.439 0 01.126.323v2.052c0 1.032-.234 1.915-.702 2.646-.468.732-1.134 1.296-1.998 1.692-.852.384-1.848.576-2.988.576zm11.983 0c-1.008 0-1.86-.162-2.556-.486-.684-.325-1.212-.787-1.584-1.386-.36-.613-.564-1.338-.612-2.178-.012-.24-.018-.51-.018-.81 0-.313.006-.582.018-.81.048-.853.264-1.579.648-2.178a3.77 3.77 0 011.602-1.387c.696-.323 1.53-.485 2.502-.485.984 0 1.818.162 2.502.485.696.325 1.236.787 1.62 1.387.384.6.6 1.325.648 2.177.012.229.018.498.018.81 0 .3-.006.57-.018.81-.048.84-.258 1.566-.63 2.178-.36.6-.888 1.063-1.584 1.387-.684.324-1.536.486-2.556.486zm0-2.197c.54 0 .93-.162 1.17-.486.252-.323.396-.81.432-1.457.012-.18.018-.42.018-.72s-.006-.54-.018-.72c-.036-.637-.18-1.117-.432-1.44-.24-.337-.63-.505-1.17-.505-.528 0-.918.168-1.17.505-.252.323-.39.803-.414 1.44-.012.18-.018.42-.018.72s.006.54.018.72c.024.648.162 1.134.414 1.457.252.325.642.486 1.17.486z" fill="#000"/><path d="M75.367 26.142c-1.14 0-2.118-.186-2.934-.558a4.339 4.339 0 01-1.89-1.639c-.444-.72-.69-1.614-.738-2.681a69.779 69.779 0 010-3.204c.048-1.044.3-1.926.756-2.646a4.284 4.284 0 011.908-1.656c.816-.384 1.782-.576 2.898-.576a7.53 7.53 0 012.196.306c.672.192 1.26.48 1.764.864.504.371.894.828 1.17 1.367.288.528.438 1.129.45 1.8a.294.294 0 01-.108.27.366.366 0 01-.27.108h-2.43c-.156 0-.276-.03-.36-.09-.084-.072-.156-.197-.216-.377-.168-.636-.444-1.069-.828-1.296-.372-.24-.834-.36-1.386-.36-.66 0-1.182.186-1.566.557-.384.36-.594.966-.63 1.819a42.344 42.344 0 000 3.024c.036.852.246 1.463.63 1.835.384.36.906.54 1.566.54.552 0 1.02-.12 1.404-.36.384-.24.654-.672.81-1.296.048-.18.114-.3.198-.36a.614.614 0 01.378-.108h2.43a.37.37 0 01.27.108c.084.072.12.162.108.27a3.956 3.956 0 01-.45 1.819 4.096 4.096 0 01-1.17 1.367 5.759 5.759 0 01-1.764.864 7.97 7.97 0 01-2.196.288zm11.703 0c-1.008 0-1.86-.162-2.556-.486-.684-.325-1.212-.787-1.584-1.386-.36-.613-.564-1.338-.612-2.178-.012-.24-.018-.51-.018-.81 0-.313.006-.582.018-.81.048-.853.264-1.579.648-2.178a3.77 3.77 0 011.602-1.387c.696-.323 1.53-.485 2.502-.485.984 0 1.818.162 2.502.485.696.325 1.236.787 1.62 1.387.384.6.6 1.325.648 2.177.012.229.018.498.018.81 0 .3-.006.57-.018.81-.048.84-.258 1.566-.63 2.178-.36.6-.888 1.063-1.584 1.387-.684.324-1.536.486-2.556.486zm0-2.197c.54 0 .93-.162 1.17-.486.252-.323.396-.81.432-1.457.012-.18.018-.42.018-.72s-.006-.54-.018-.72c-.036-.637-.18-1.117-.432-1.44-.24-.337-.63-.505-1.17-.505-.528 0-.918.168-1.17.505-.252.323-.39.803-.414 1.44-.012.18-.018.42-.018.72s.006.54.018.72c.024.648.162 1.134.414 1.457.252.325.642.486 1.17.486zm7.008 2.017a.439.439 0 01-.324-.127.439.439 0 01-.126-.323v-8.46c0-.12.042-.223.126-.306a.41.41 0 01.324-.144h2.07a.41.41 0 01.324.143.417.417 0 01.126.306v.72c.324-.372.708-.66 1.152-.864a3.706 3.706 0 011.53-.305h.792c.12 0 .222.041.306.125a.41.41 0 01.144.325v1.854c0 .12-.048.228-.144.324a.417.417 0 01-.306.125h-1.746c-.492 0-.876.139-1.152.415-.264.264-.396.642-.396 1.134v4.608a.41.41 0 01-.144.323.439.439 0 01-.324.127h-2.232zm12.082.18c-1.008 0-1.86-.162-2.556-.486-.684-.325-1.212-.787-1.584-1.386-.36-.613-.564-1.338-.612-2.178-.012-.24-.018-.51-.018-.81 0-.313.006-.582.018-.81.048-.853.264-1.579.648-2.178a3.77 3.77 0 011.602-1.387c.696-.323 1.53-.485 2.502-.485.984 0 1.818.162 2.502.485.696.325 1.236.787 1.62 1.387.384.6.6 1.325.648 2.177.012.229.018.498.018.81 0 .3-.006.57-.018.81-.048.84-.258 1.566-.63 2.178-.36.6-.888 1.063-1.584 1.387-.684.324-1.536.486-2.556.486zm0-2.197c.54 0 .93-.162 1.17-.486.252-.323.396-.81.432-1.457.012-.18.018-.42.018-.72s-.006-.54-.018-.72c-.036-.637-.18-1.117-.432-1.44-.24-.337-.63-.505-1.17-.505-.528 0-.918.168-1.17.505-.252.323-.39.803-.414 1.44-.012.18-.018.42-.018.72s.006.54.018.72c.024.648.162 1.134.414 1.457.252.325.642.486 1.17.486zm7.008 2.017a.439.439 0 01-.324-.127.439.439 0 01-.126-.323v-8.46a.44.44 0 01.126-.325.439.439 0 01.324-.125h2.07c.132 0 .24.041.324.125a.439.439 0 01.126.325v.683c.312-.372.72-.683 1.224-.936.504-.252 1.098-.377 1.782-.377.696 0 1.308.155 1.836.468.54.311.96.773 1.26 1.386.312.6.468 1.337.468 2.213v5.023a.41.41 0 01-.144.323.417.417 0 01-.306.127h-2.268a.48.48 0 01-.324-.127.439.439 0 01-.126-.323v-4.915c0-.564-.138-.995-.414-1.296-.264-.311-.66-.467-1.188-.467-.492 0-.888.155-1.188.468-.288.3-.432.732-.432 1.296v4.914a.41.41 0 01-.144.323.417.417 0 01-.306.127h-2.25zm13.907.18c-.648 0-1.23-.12-1.746-.36a3.218 3.218 0 01-1.206-1.009c-.3-.42-.45-.893-.45-1.421 0-.852.348-1.524 1.044-2.017.696-.504 1.62-.846 2.772-1.026l2.25-.341v-.253c0-.431-.09-.762-.27-.99-.18-.228-.51-.341-.99-.341-.336 0-.612.066-.828.197a1.412 1.412 0 00-.486.54.517.517 0 01-.45.235h-2.016a.414.414 0 01-.306-.109.364.364 0 01-.09-.288c0-.215.078-.462.234-.738.168-.288.42-.57.756-.846s.768-.503 1.296-.683c.528-.18 1.164-.27 1.908-.27.78 0 1.446.09 1.998.27.552.18.996.431 1.332.756.348.323.606.707.774 1.151.168.433.252.913.252 1.44v5.473a.41.41 0 01-.144.323.417.417 0 01-.306.127h-2.088a.439.439 0 01-.324-.127.439.439 0 01-.126-.323v-.63a2.613 2.613 0 01-.63.63 3.083 3.083 0 01-.936.45c-.348.12-.756.18-1.224.18zm.846-2.052c.348 0 .66-.073.936-.216.288-.156.51-.39.666-.702.168-.325.252-.727.252-1.207v-.252l-1.53.27c-.564.096-.978.247-1.242.45-.252.192-.378.42-.378.684 0 .204.06.378.18.523.12.143.276.258.468.341.192.072.408.108.648.108zM14.22 4.989c1.425-.5 2.991.174 3.497 1.504.388 1.018.041 2.125-.78 2.812l.443 1.211.707.816a.738.738 0 00.651.245 8.649 8.649 0 011.961-.017.735.735 0 00.592-.2l.51-.494.375-1.094a1.717 1.717 0 01-.238-1.573 1.739 1.739 0 012.307-1.036 1.732 1.732 0 011.008 2.059 1.73 1.73 0 01-.995 1.125l-.416 1.212.094.669c.033.23.17.43.369.55.67.407 1.285.904 1.825 1.478a.769.769 0 00.713.224l1.34-.269 1.513-.84a2.142 2.142 0 011.106-1.851 2.163 2.163 0 012.964.882c.509.97.19 2.19-.733 2.787-.72.466-1.6.449-2.278.051l-1.522.844-.85.903a.953.953 0 00-.223.906l.001.005c.15.553.24 1.108.277 1.659a.955.955 0 00.498.78l1.11.598 2.2.415a1.74 1.74 0 011.467-.399 1.728 1.728 0 011.358 2.129 1.744 1.744 0 01-1.899 1.28 1.733 1.733 0 01-1.314-.9l-2.214-.417-1.365.166a.723.723 0 00-.574.419 8.695 8.695 0 01-1.669 2.47.715.715 0 00-.175.676l.34 1.31.837 1.31c.922-.138 1.88.26 2.413 1.092a2.407 2.407 0 01-.723 3.319 2.449 2.449 0 01-3.355-.697 2.402 2.402 0 01-.102-2.482l-.89-1.39-1.093-.898a.597.597 0 00-.58-.098 8.656 8.656 0 01-4.359.38.594.594 0 00-.487.136l-.587.508-.436 1.072c.295.456.37 1.042.15 1.583a1.74 1.74 0 01-2.361.908 1.731 1.731 0 01-.891-2.111 1.726 1.726 0 011.056-1.069l.483-1.188-.09-1.043a8.664 8.664 0 01-2.282-2.069l-1.49.147-1.396.688c.009.934-.473 1.822-1.319 2.252-1.195.607-2.663.07-3.278-1.2-.615-1.27-.146-2.792 1.05-3.399.893-.454 1.94-.268 2.668.387l1.316-.649.913-.977a.252.252 0 00.06-.238 8.51 8.51 0 01.044-4.607.249.249 0 00-.048-.23l-.788-.938-1.698-.889a1.74 1.74 0 01-1.51-.05 1.722 1.722 0 01-.673-2.428 1.75 1.75 0 012.24-.653c.516.25.849.717.947 1.234l1.698.888 1.208.113a.252.252 0 00.22-.092 8.601 8.601 0 011.941-1.76.734.734 0 00.333-.6l.013-1.094-.474-1.29c-1.027-.074-1.956-.694-2.324-1.661-.506-1.33.239-2.813 1.664-3.312z" fill="#EC5863"/><path d="M25.99 18.477c-.917-3.403-4.434-5.423-7.856-4.511-3.421.912-5.452 4.41-4.535 7.813.917 3.402 4.434 5.422 7.855 4.51 3.422-.912 5.453-4.41 4.536-7.813z" fill="#F58A97"/><path d="M20.948 24.41c-3.1.827-6.28-.753-7.53-3.59.035.32.095.64.18.959.918 3.402 4.435 5.422 7.856 4.51 3.422-.912 5.453-4.41 4.536-7.813a6.411 6.411 0 00-.325-.92 6.382 6.382 0 01-4.717 6.855z" fill="#F07281"/><path d="M11.324 33.496a1.828 1.828 0 00-2.237-1.285 1.815 1.815 0 00-1.292 2.225 1.828 1.828 0 002.238 1.285 1.815 1.815 0 001.291-2.225zm22.786-5.558a1.207 1.207 0 00-2.33.621 1.207 1.207 0 002.33-.621zM30.843 6.002a1.778 1.778 0 00-2.177-1.25 1.766 1.766 0 00-1.256 2.165 1.778 1.778 0 002.176 1.25 1.766 1.766 0 001.257-2.165zM20.195 22.048a1.658 1.658 0 00-2.029-1.165 1.647 1.647 0 00-1.171 2.018 1.658 1.658 0 002.029 1.165 1.647 1.647 0 001.171-2.018zm4.115-2.466a1.128 1.128 0 00-2.178.58 1.128 1.128 0 002.179-.58zm-4.352-2.486a.947.947 0 00-1.83.488.947.947 0 001.83-.488z" fill="#EB5569"/></svg>