<svg width="88" height="14" fill="none" xmlns="http://www.w3.org/2000/svg"><path d="M6.462 13.142c-1.14 0-2.124-.186-2.952-.558-.816-.384-1.452-.936-1.908-1.656-.444-.733-.69-1.62-.738-2.664a73.832 73.832 0 010-3.312c.048-1.02.3-1.884.756-2.592.456-.708 1.098-1.248 1.926-1.62.828-.372 1.8-.558 2.916-.558.9 0 1.698.114 2.394.342.696.216 1.278.51 1.746.882.48.372.84.78 1.08 1.224.252.444.384.882.396 1.314a.294.294 0 01-.108.27.366.366 0 01-.27.108H9.072a.699.699 0 01-.306-.054.684.684 0 01-.162-.198 2.413 2.413 0 00-.378-.558 1.873 1.873 0 00-.666-.522c-.276-.144-.642-.216-1.098-.216-.684 0-1.224.18-1.62.54-.384.36-.594.936-.63 1.728a45.426 45.426 0 000 3.132c.036.84.258 1.446.666 1.818.408.371.948.557 1.62.557.456 0 .858-.077 1.206-.233.36-.157.642-.396.846-.72.204-.336.306-.762.306-1.278v-.342H7.164a.502.502 0 01-.342-.126.502.502 0 01-.126-.342V6.176c0-.132.042-.24.126-.324a.467.467 0 01.342-.144H11.7a.41.41 0 01.324.144.439.439 0 01.126.324v2.052c0 1.032-.234 1.914-.702 2.646-.468.731-1.134 1.295-1.998 1.691-.852.385-1.848.577-2.988.577zm11.983 0c-1.008 0-1.86-.162-2.556-.486-.684-.325-1.212-.787-1.584-1.386-.36-.612-.564-1.338-.612-2.178-.012-.24-.018-.51-.018-.81 0-.312.006-.582.018-.81.048-.852.264-1.578.648-2.178.384-.6.918-1.062 1.602-1.386.696-.324 1.53-.486 2.502-.486.984 0 1.818.162 2.502.486.696.324 1.236.786 1.62 1.386.384.6.6 1.326.648 2.178.012.228.018.498.018.81 0 .3-.006.57-.018.81-.048.84-.258 1.566-.63 2.178-.36.6-.888 1.062-1.584 1.386-.684.323-1.536.486-2.556.486zm0-2.197c.54 0 .93-.162 1.17-.486.252-.323.396-.81.432-1.457.012-.18.018-.42.018-.72s-.006-.54-.018-.72c-.036-.636-.18-1.116-.432-1.44-.24-.336-.63-.504-1.17-.504-.528 0-.918.168-1.17.504-.252.324-.39.804-.414 1.44-.012.18-.018.42-.018.72s.006.54.018.72c.024.648.162 1.133.414 1.457.252.325.642.486 1.17.486z" fill="#000"/><path d="M30.367 13.142c-1.14 0-2.118-.186-2.934-.558a4.339 4.339 0 01-1.89-1.639c-.444-.72-.69-1.613-.738-2.681a69.779 69.779 0 010-3.204c.048-1.044.3-1.926.756-2.646A4.284 4.284 0 0127.47.758c.816-.384 1.782-.576 2.898-.576a7.53 7.53 0 012.196.306c.672.192 1.26.48 1.764.864.504.372.894.828 1.17 1.368.288.528.438 1.128.45 1.8a.294.294 0 01-.108.27.366.366 0 01-.27.108h-2.43c-.156 0-.276-.03-.36-.09-.084-.072-.156-.198-.216-.378-.168-.636-.444-1.068-.828-1.296-.372-.24-.834-.36-1.386-.36-.66 0-1.182.186-1.566.558-.384.36-.594.966-.63 1.818a42.344 42.344 0 000 3.024c.036.852.246 1.464.63 1.835.384.36.906.54 1.566.54.552 0 1.02-.12 1.404-.36.384-.24.654-.671.81-1.295.048-.18.114-.3.198-.36a.614.614 0 01.378-.108h2.43c.108 0 .198.036.27.108.084.072.12.162.108.27a3.956 3.956 0 01-.45 1.817 4.096 4.096 0 01-1.17 1.368 5.759 5.759 0 01-1.764.864 7.97 7.97 0 01-2.196.289zm11.703 0c-1.008 0-1.86-.162-2.556-.486-.684-.325-1.212-.787-1.584-1.386-.36-.612-.564-1.338-.612-2.178-.012-.24-.018-.51-.018-.81 0-.312.006-.582.018-.81.048-.852.264-1.578.648-2.178.384-.6.918-1.062 1.602-1.386.696-.324 1.53-.486 2.502-.486.984 0 1.818.162 2.502.486.696.324 1.236.786 1.62 1.386.384.6.6 1.326.648 2.178.012.228.018.498.018.81 0 .3-.006.57-.018.81-.048.84-.258 1.566-.63 2.178-.36.6-.888 1.062-1.584 1.386-.684.323-1.536.486-2.556.486zm0-2.197c.54 0 .93-.162 1.17-.486.252-.323.396-.81.432-1.457.012-.18.018-.42.018-.72s-.006-.54-.018-.72c-.036-.636-.18-1.116-.432-1.44-.24-.336-.63-.504-1.17-.504-.528 0-.918.168-1.17.504-.252.324-.39.804-.414 1.44-.012.18-.018.42-.018.72s.006.54.018.72c.024.648.162 1.133.414 1.457.252.325.642.486 1.17.486zm7.008 2.016a.439.439 0 01-.324-.126.439.439 0 01-.126-.324v-8.46c0-.12.042-.221.126-.305a.41.41 0 01.324-.144h2.07a.41.41 0 01.324.144.417.417 0 01.126.306v.72c.324-.372.708-.66 1.152-.864a3.706 3.706 0 011.53-.306h.792c.12 0 .222.042.306.126a.41.41 0 01.144.324v1.854c0 .12-.048.228-.144.324a.417.417 0 01-.306.126h-1.746c-.492 0-.876.138-1.152.414-.264.264-.396.642-.396 1.134v4.607a.41.41 0 01-.144.325.439.439 0 01-.324.125h-2.232zm12.082.18c-1.008 0-1.86-.162-2.556-.486-.684-.323-1.212-.785-1.584-1.385-.36-.612-.564-1.338-.612-2.178-.012-.24-.018-.51-.018-.81 0-.312.006-.582.018-.81.048-.852.264-1.578.648-2.178.384-.6.918-1.062 1.602-1.386.696-.324 1.53-.486 2.502-.486.984 0 1.818.162 2.502.486.696.324 1.236.786 1.62 1.386.384.6.6 1.326.648 2.178.012.228.018.498.018.81 0 .3-.006.57-.018.81-.048.84-.258 1.566-.63 2.178-.36.6-.888 1.062-1.584 1.386-.684.323-1.536.486-2.556.486zm0-2.196c.54 0 .93-.162 1.17-.486.252-.323.396-.81.432-1.457.012-.18.018-.42.018-.72s-.006-.54-.018-.72c-.036-.636-.18-1.116-.432-1.44-.24-.336-.63-.504-1.17-.504-.528 0-.918.168-1.17.504-.252.324-.39.804-.414 1.44-.012.18-.018.42-.018.72s.006.54.018.72c.024.648.162 1.133.414 1.457.252.325.642.486 1.17.486zm7.008 2.016a.439.439 0 01-.324-.126.439.439 0 01-.126-.324v-8.46c0-.131.042-.24.126-.323a.439.439 0 01.324-.126h2.07c.132 0 .24.042.324.126a.439.439 0 01.126.324v.684c.312-.372.72-.684 1.224-.936s1.098-.378 1.782-.378c.696 0 1.308.156 1.836.468.54.312.96.774 1.26 1.386.312.6.468 1.338.468 2.214v5.021a.41.41 0 01-.144.325.417.417 0 01-.306.125H74.54a.48.48 0 01-.324-.126.439.439 0 01-.126-.324V7.598c0-.564-.138-.996-.414-1.296-.264-.312-.66-.468-1.188-.468-.492 0-.888.156-1.188.468-.288.3-.432.732-.432 1.296v4.913a.41.41 0 01-.144.325.417.417 0 01-.306.125h-2.25zm13.907.18c-.648 0-1.23-.12-1.746-.36a3.218 3.218 0 01-1.206-1.008c-.3-.42-.45-.893-.45-1.421 0-.852.348-1.524 1.044-2.016.696-.504 1.62-.846 2.772-1.026l2.25-.342v-.252c0-.432-.09-.762-.27-.99-.18-.228-.51-.342-.99-.342-.336 0-.612.066-.828.198a1.412 1.412 0 00-.486.54.517.517 0 01-.45.234H79.7c-.132 0-.234-.036-.306-.108a.364.364 0 01-.09-.288c0-.216.078-.462.234-.738.168-.288.42-.57.756-.846s.768-.504 1.296-.684c.528-.18 1.164-.27 1.908-.27.78 0 1.446.09 1.998.27.552.18.996.432 1.332.756.348.324.606.708.774 1.152.168.432.252.912.252 1.44v5.471a.41.41 0 01-.144.325.417.417 0 01-.306.125h-2.088a.439.439 0 01-.324-.126.439.439 0 01-.126-.324v-.63a2.613 2.613 0 01-.63.63 3.083 3.083 0 01-.936.45c-.348.12-.756.18-1.224.18zm.846-2.052c.348 0 .66-.072.936-.216.288-.155.51-.39.666-.701.168-.324.252-.726.252-1.206v-.252l-1.53.27c-.564.096-.978.246-1.242.45-.252.192-.378.42-.378.684 0 .204.06.377.18.521.12.145.276.259.468.343.192.072.408.107.648.107z" fill="#EC5863"/></svg>